<?xml version="1.0" encoding="UTF-8"?>
<svg id="Layer_1" data-name="Layer 1" xmlns="http://www.w3.org/2000/svg" viewBox="0 0 1080 1080">
  <defs>
    <style>
      .cls-1 {
        fill: #263ba8;
      }

      .cls-2 {
        fill: #fff;
      }
    </style>
  </defs>
  <rect class="cls-2" x="-55.07" y="-22.39" width="1197.64" height="1176.76"/>
  <path class="cls-1" d="M582.81,526.07c24.61-8.34,57.2-20.84,75.46-38.51,7.44-7.2,12.91-15.6,15.16-25.76,2.64-11.94.23-24.69-8.57-33.46-17.49-17.45-50.62-15.44-74.58-9.74-6.62,1.58-12.99-1.89-14.73-7.86-1.94-6.65,1.93-13.48,8.91-15.14,21.34-5.1,43.01-6.62,64.38-1.64,18.72,4.37,35.24,14.91,43.6,32.48,10.92,22.96,6.39,49.95-9.6,69.49-21.48,26.25-61.13,42.83-93.56,52.73-6.35,1.94-12.82-2.96-14.28-8.1-1.76-6.23,1.39-12.3,7.81-14.48ZM527.1,525.38c5.77.3,12.41-3.95,12.42-11.12l.07-163.6c32.36.16,63.44-18.36,76.48-46.93l13.1-28.7c5.91-12.95,14.87-24.23,28.21-29.67,23.07-9.4,54.35,1.22,77.14,11.72s42,21.75,62.82,34.11c30.17,17.92,60.61,33.97,93.63,45.8,14.4,5.16,28.01,9.31,43.2,11.41-6.18,8.32-14.27,14.36-23.81,18.81-30.94,14.41-65.76,9.41-96.78-4.06-21.48-9.33-40.52-22.29-57.9-37.88-5.16-4.63-11.68-4.74-16.49-.36-4.36,3.98-5.4,11.24-1.1,15.92,6.09,6.63,12.99,11.55,20.16,17.01,20.24,15.42,42.07,27.17,67.24,34.96-20.72,21.41-48.36,28.1-75.58,16.04-26.61-11.8-43.97-35.76-58.35-60.31-3.68-6.28-11.02-8.35-16.96-4.85s-7.53,10.73-3.77,16.96c16.81,27.93,38.94,56,68.86,69.66,41.85,19.1,84.53,4.12,112.13-31.71,46.12,5.37,93.77-10.75,112.79-55.02,1.83-4.26.83-8.73-1.67-12.17-2.27-3.12-5.86-4.37-10.24-4.66-20.56-1.35-39.95-6.55-59.31-13.93-23.79-9.07-45.83-20.03-67.88-32.76l-54.8-31.65c-16.67-9.63-33.61-17.24-51.87-23.13-38.61-12.45-77.92-10.97-102.39,23.81-10.81,15.37-15.56,34.88-25.97,50.91-11.4,17.56-30.38,27.28-50.97,26.89l.1-34.6c12.89-2.16,23.48-7.63,32.95-15.92,27.16-23.48,31.48-63.63,10.55-92.49-20.38-28.1-59.2-36.46-89.53-19.19-30.43,17.33-43.54,55.01-28.85,87.5,9.57,21.17,28.13,35.91,50.76,40.26l.03,34.39c-21.14.48-40.48-10.03-51.72-28.09-8.06-12.95-12.88-27.93-21.31-43.35-11.62-21.24-32.54-35.04-56.85-37.01-48.15-3.91-102.71,30.31-144.15,54.72-41.28,24.32-93.4,51.2-141.08,53.79-4.07.22-7.38,3-9.07,5.75-2.18,3.56-2.25,7.48-.57,11.35,18.93,43.76,66.52,59.94,112.6,54.67,27.25,35.47,70.21,50.89,111.85,31.72,31.08-14.31,52.42-41.81,69.56-70.92,3.54-6.01.37-13.41-5.5-16.35-5.24-2.62-12.04-.82-15.44,4.92-13.33,22.54-29.92,45.22-53.03,58.02-28.15,15.58-58.49,9.82-81.24-13.18,33.24-10.25,60.2-27.61,85.67-49.75,5.24-4.56,6.16-11.35,1.88-16.94-3.17-4.15-10.56-6.73-15.56-2.43-15.01,12.92-30.36,24.49-48.03,33.64-33.83,17.51-72.86,26.03-108.33,10.07-9.73-4.38-17.95-10.72-24.5-19.03,36.07-5.49,83.23-26.13,114.68-44.33l48.77-28.23c16.62-9.62,33.04-18.07,50.98-24.95,23.35-8.96,52.5-15.2,72.73.18,17.11,13,21.5,35.27,33.2,56.17,15.86,28.32,42.1,42.75,74.46,43.34l.07,161.81c0,7.3,4.45,12.6,11.49,12.97ZM572.42,224.46c0,24.78-20.09,44.87-44.87,44.87s-44.87-20.09-44.87-44.87,20.09-44.87,44.87-44.87,44.87,20.09,44.87,44.87ZM502.85,851.73c-10.49-2.9-20.51-6.86-28.9-13.93-15.96-13.46-17.19-36.49-5.04-53.21,12.9-17.75,35.54-28.77,55.4-38.59l43.24-21.38c16.34-8.08,30.78-18.45,43.69-31.31,11.15-11.11,19.62-23.77,23.83-38.93,10.95-39.41-12.64-70.17-46.64-88.79-12.24-6.7-24.57-12.27-38.03-16.14l-48.73-14.04c-26.5-7.63-52.21-15.94-76.56-28.71-22.9-12.01-45.07-28.1-44.47-55.44.27-12.3,6.64-22.47,17.2-28.51,19.39-11.09,45.67-9.29,67.46-3.99,6.66,1.62,13.07-2.82,14.34-8.64,1.48-6.77-2.2-12.92-9.06-14.57-27.96-6.72-61.31-7.65-85.96,7.27-18.79,11.37-28.78,30.7-27.86,52.73,1.42,34.08,26.73,56.11,55.61,71.39,35.88,18.99,71.52,28.19,110.25,38.88,28.32,7.82,67.4,21.48,83.58,45.56,14.8,22.04,6.28,47.28-11.75,65.16-11.95,11.85-25.73,21.01-40.83,28.46l-37.53,18.52c-27.99,13.81-58.75,28.54-72.68,57.37-8.39,17.36-8.75,36.73-.95,54.29,11.43,25.73,38.3,35.74,64.71,42.6,25.03,6.51,50.88,12.47,66.84,33.84,5.72,7.66,7.61,16.75,8.33,26.09.48,6.28,6.41,10.08,12.17,10.01,4.77-.06,11.34-3.66,11.5-9.7,1.08-40.47-32.64-66.76-69.67-77.02l-33.48-9.27ZM442.76,646.75c-6.84-24.85,10.46-46.74,32.64-57.96,6.4-3.24,8.9-10.38,5.91-16.42s-10.12-8.42-16.18-5.33c-10.19,5.2-18.88,11.67-26.86,19.66-21.21,21.21-26.9,52.18-13.87,79.44,7.52,15.73,19.11,28.41,32.97,39.07l22.36,14.63c5.87,3.84,13.74-.03,16.17-5.6,2.82-6.44.27-12.88-6.14-16.31-20.71-11.07-40.82-28.77-47-51.19ZM605.59,770.49c-8.46-11.89-19.77-21.68-33.11-28.24-6.17-3.04-13,.68-15.44,6.4-2.27,5.34-.39,11.91,5.24,15.14,9.39,5.39,17.54,11.79,23.91,20.61,14.04,19.43,9.41,45.1-10.32,58.91-5.77,4.04-8.84,10.81-5.14,17.03s11.2,7.65,17.62,3.42c31.85-20.98,39.22-62.4,17.24-93.27ZM539.35,594.71c0-6.25-6.28-10.83-11.43-10.91-4.81-.07-12.1,4.01-12.1,10.2v94.23c0,6.69,6.49,10.95,12.08,10.87s11.58-4.45,11.57-11.48l-.11-92.92ZM539.36,774.12c-.02-6.48-5.94-10.95-11.48-11.06s-11.96,4.31-11.98,10.86l-.16,56.92c-.02,6.95,5.95,11.64,12.12,11.56,6.09-.09,11.71-4.68,11.69-12.06l-.18-56.22ZM489.27,903.83c5.47-4.15,6.17-11.68,2.39-16.79s-11.24-6.61-16.91-2.32c-16.47,12.47-26.38,32.24-25.65,53.1.23,6.46,6.91,10.1,12.28,9.95s11.19-3.8,11.4-10.26c.46-13.75,5.87-25.62,16.49-33.67ZM539.32,911.07c-.04-6.64-6.45-11.05-12.32-10.81-5.61.23-11.19,5.01-11.19,11.35v36.16c0,7,6.52,11.15,12.99,10.64,5.56-.44,10.76-5.16,10.72-12.15l-.2-35.2Z"/>
</svg>