<?xml version="1.0" encoding="UTF-8"?>
<svg id="Layer_1" data-name="Layer 1" xmlns="http://www.w3.org/2000/svg" viewBox="0 0 1080 1080">
  <defs>
    <style>
      .cls-1 {
        font-family: Montserrat-Bold, Montserrat;
        font-size: 73.83px;
        font-variation-settings: 'wght' 700;
        font-weight: 700;
      }

      .cls-1, .cls-2 {
        fill: #263ba8;
      }

      .cls-3 {
        letter-spacing: 0em;
      }

      .cls-4 {
        fill: #939598;
        font-family: Montserrat-Regular, Montserrat;
        font-size: 56px;
        font-variation-settings: 'wght' 400;
      }

      .cls-5 {
        letter-spacing: -.09em;
      }

      .cls-6 {
        letter-spacing: -.08em;
      }

      .cls-7 {
        letter-spacing: -.06em;
      }

      .cls-8 {
        letter-spacing: -.05em;
      }

      .cls-9 {
        letter-spacing: -.05em;
      }

      .cls-10 {
        letter-spacing: -.04em;
      }

      .cls-11 {
        letter-spacing: 0em;
      }

      .cls-12 {
        letter-spacing: 0em;
      }

      .cls-13 {
        letter-spacing: 0em;
      }
    </style>
  </defs>
  <path class="cls-2" d="M561.82,355.03c9.73-3.3,22.6-8.24,29.82-15.21,2.94-2.84,5.1-6.16,5.99-10.18,1.04-4.72.09-9.75-3.39-13.22-6.91-6.89-20-6.1-29.47-3.85-2.61.62-5.13-.75-5.82-3.11-.77-2.63.76-5.32,3.52-5.98,8.43-2.02,17-2.62,25.44-.65,7.4,1.73,13.92,5.89,17.23,12.83,4.32,9.07,2.53,19.74-3.79,27.46-8.49,10.37-24.16,16.92-36.97,20.83-2.51.77-5.07-1.17-5.64-3.2-.7-2.46.55-4.86,3.09-5.72ZM539.81,354.76c2.28.12,4.9-1.56,4.91-4.4l.03-64.64c12.78.06,25.07-7.25,30.22-18.54l5.18-11.34c2.33-5.12,5.87-9.57,11.15-11.72,9.11-3.72,21.48.48,30.48,4.63,8.66,3.99,16.6,8.59,24.82,13.48,11.92,7.08,23.95,13.42,37,18.1,5.69,2.04,11.07,3.68,17.07,4.51-2.44,3.29-5.64,5.68-9.41,7.43-12.23,5.69-25.98,3.72-38.24-1.6-8.49-3.69-16.01-8.81-22.88-14.97-2.04-1.83-4.62-1.87-6.52-.14-1.72,1.57-2.14,4.44-.44,6.29,2.41,2.62,5.13,4.56,7.97,6.72,8,6.09,16.62,10.74,26.57,13.81-8.19,8.46-19.11,11.1-29.86,6.34-10.52-4.66-17.38-14.13-23.05-23.83-1.45-2.48-4.36-3.3-6.7-1.92-2.28,1.35-2.97,4.24-1.49,6.7,6.64,11.04,15.39,22.13,27.21,27.52,16.54,7.55,33.4,1.63,44.3-12.53,18.22,2.12,37.05-4.25,44.57-21.74.72-1.68.33-3.45-.66-4.81-.9-1.23-2.31-1.73-4.05-1.84-8.13-.54-15.79-2.59-23.43-5.51-9.4-3.58-18.11-7.91-26.82-12.94l-21.65-12.5c-6.59-3.8-13.28-6.81-20.5-9.14-15.26-4.92-30.79-4.34-40.46,9.41-4.27,6.07-6.15,13.78-10.26,20.11-4.5,6.94-12,10.78-20.14,10.63l.04-13.67c5.09-.85,9.28-3.01,13.02-6.29,10.73-9.28,12.44-25.14,4.17-36.55-8.05-11.1-23.39-14.41-35.38-7.58-12.02,6.85-17.2,21.74-11.4,34.57,3.78,8.36,11.11,14.19,20.05,15.91v13.59c-8.34.19-15.99-3.96-20.43-11.1-3.19-5.12-5.09-11.04-8.42-17.13-4.59-8.39-12.86-13.84-22.46-14.62-19.02-1.54-40.58,11.98-56.96,21.62-16.31,9.61-36.9,20.23-55.75,21.25-1.61.09-2.92,1.18-3.58,2.27-.86,1.41-.89,2.96-.23,4.49,7.48,17.29,26.29,23.68,44.49,21.6,10.77,14.02,27.74,20.11,44.19,12.53,12.28-5.65,20.71-16.52,27.49-28.02,1.4-2.37.14-5.3-2.17-6.46-2.07-1.03-4.76-.32-6.1,1.95-5.27,8.91-11.82,17.87-20.95,22.92-11.12,6.16-23.11,3.88-32.1-5.21,13.13-4.05,23.79-10.91,33.85-19.66,2.07-1.8,2.43-4.48.74-6.7-1.25-1.64-4.17-2.66-6.15-.96-5.93,5.1-12,9.68-18.98,13.29-13.37,6.92-28.79,10.29-42.8,3.98-3.85-1.73-7.09-4.24-9.68-7.52,14.25-2.17,32.88-10.32,45.31-17.52l19.27-11.15c6.57-3.8,13.06-7.14,20.14-9.86,9.22-3.54,20.74-6.01,28.74.07,6.76,5.14,8.49,13.93,13.12,22.19,6.27,11.19,16.63,16.89,29.42,17.13l.03,63.94c0,2.88,1.76,4.98,4.54,5.12ZM557.71,235.86c0,9.79-7.94,17.73-17.73,17.73s-17.73-7.94-17.73-17.73,7.94-17.73,17.73-17.73,17.73,7.94,17.73,17.73ZM530.23,483.71c-4.14-1.15-8.1-2.71-11.42-5.51-6.31-5.32-6.79-14.42-1.99-21.03,5.1-7.01,14.04-11.37,21.89-15.25l17.08-8.45c6.46-3.19,12.16-7.29,17.26-12.37,4.41-4.39,7.75-9.39,9.42-15.38,4.33-15.57-4.99-27.73-18.43-35.08-4.84-2.65-9.71-4.85-15.03-6.38l-19.26-5.55c-10.47-3.02-20.63-6.3-30.25-11.34-9.05-4.75-17.81-11.1-17.57-21.91.11-4.86,2.62-8.88,6.8-11.26,7.66-4.38,18.05-3.67,26.66-1.58,2.63.64,5.17-1.12,5.67-3.41.58-2.67-.87-5.1-3.58-5.76-11.05-2.66-24.22-3.02-33.97,2.87-7.43,4.49-11.37,12.13-11.01,20.84.56,13.46,10.56,22.17,21.97,28.21,14.18,7.5,28.26,11.14,43.56,15.36,11.19,3.09,26.63,8.49,33.02,18,5.85,8.71,2.48,18.68-4.64,25.75-4.72,4.68-10.17,8.3-16.13,11.25l-14.83,7.32c-11.06,5.46-23.21,11.28-28.72,22.67-3.32,6.86-3.46,14.51-.38,21.45,4.52,10.17,15.13,14.12,25.57,16.83,9.89,2.57,20.1,4.93,26.41,13.37,2.26,3.03,3.01,6.62,3.29,10.31.19,2.48,2.53,3.98,4.81,3.96,1.89-.02,4.48-1.45,4.54-3.83.43-15.99-12.9-26.38-27.53-30.43l-13.23-3.66ZM506.48,402.71c-2.7-9.82,4.13-18.47,12.9-22.9,2.53-1.28,3.52-4.1,2.34-6.49s-4-3.33-6.39-2.11c-4.03,2.05-7.46,4.61-10.61,7.77-8.38,8.38-10.63,20.62-5.48,31.39,2.97,6.22,7.55,11.22,13.03,15.44l8.84,5.78c2.32,1.52,5.43-.01,6.39-2.21,1.11-2.54.11-5.09-2.43-6.44-8.18-4.37-16.13-11.37-18.57-20.23ZM570.82,451.61c-3.34-4.7-7.81-8.57-13.08-11.16-2.44-1.2-5.14.27-6.1,2.53-.9,2.11-.15,4.71,2.07,5.98,3.71,2.13,6.93,4.66,9.45,8.14,5.55,7.68,3.72,17.82-4.08,23.28-2.28,1.6-3.49,4.27-2.03,6.73,1.42,2.39,4.43,3.02,6.96,1.35,12.58-8.29,15.5-24.66,6.81-36.85ZM544.65,382.15c0-2.47-2.48-4.28-4.52-4.31-1.9-.03-4.78,1.59-4.78,4.03v37.23c0,2.64,2.57,4.33,4.77,4.3,2.12-.03,4.57-1.76,4.57-4.54l-.04-36.72ZM544.65,453.04c0-2.56-2.35-4.33-4.54-4.37-2.21-.04-4.73,1.7-4.73,4.29l-.06,22.49c0,2.75,2.35,4.6,4.79,4.57,2.4-.03,4.63-1.85,4.62-4.77l-.07-22.21ZM524.86,504.29c2.16-1.64,2.44-4.61.94-6.64s-4.44-2.61-6.68-.92c-6.51,4.93-10.42,12.74-10.13,20.98.09,2.55,2.73,3.99,4.85,3.93,2.06-.06,4.42-1.5,4.51-4.05.18-5.43,2.32-10.12,6.52-13.3ZM544.64,507.16c-.02-2.62-2.55-4.37-4.87-4.27-2.22.09-4.42,1.98-4.42,4.48v14.29c0,2.77,2.58,4.41,5.13,4.21,2.2-.17,4.25-2.04,4.23-4.8l-.08-13.91Z"/>
  <text class="cls-1" transform="translate(121.97 634.17)"><tspan x="0" y="0">D</tspan><tspan class="cls-12" x="60.98" y="0">r</tspan><tspan x="92.07" y="0">. José </tspan><tspan class="cls-11" x="327.29" y="0">L</tspan><tspan class="cls-3" x="371.59" y="0">uis A</tspan><tspan class="cls-13" x="561.18" y="0">n</tspan><tspan x="612.5" y="0">d</tspan><tspan class="cls-10" x="663.59" y="0">r</tspan><tspan class="cls-13" x="692.53" y="0">a</tspan><tspan x="738.38" y="0">de</tspan></text>
  <text class="cls-4" transform="translate(54.07 710.71)"><tspan class="cls-8" x="0" y="0">CIRUGÍA GENERAL Y LA</tspan><tspan class="cls-5" x="615.88" y="0">P</tspan><tspan class="cls-8" x="650.77" y="0">AROS</tspan><tspan class="cls-6" x="801.63" y="0">C</tspan><tspan class="cls-9" x="836.57" y="0">O</tspan><tspan class="cls-7" x="880.76" y="0">P</tspan><tspan class="cls-9" x="917.6" y="0">IA</tspan></text>
</svg>